<svg xmlns="http://www.w3.org/2000/svg" viewBox="0 0 130 50"><g fill="#FF3A46"><path fill-rule="evenodd" d="M40.98 31.903a37.69 37.69 0 0 1-.542 1.054c-1.028 1.92-2.227 3.586-3.6 4.997a15.525 15.525 0 0 1-4.705 3.332c-1.766.808-3.751 1.214-5.958 1.214-1.874 0-3.578-.206-5.108-.618-1.532-.411-2.894-.983-4.086-1.717a13.791 13.791 0 0 1-3.113-2.59 14.578 14.578 0 0 1-2.183-3.229 15.645 15.645 0 0 1-1.271-3.661A18.307 18.307 0 0 1 10 26.83c0-1.495.197-3 .589-4.513.394-1.515.96-2.965 1.697-4.35a19.834 19.834 0 0 1 2.72-3.886 18.405 18.405 0 0 1 3.65-3.147 17.743 17.743 0 0 1 4.49-2.097c1.634-.507 3.374-.76 5.222-.76.827 0 1.623.126 2.39.379.764.254 1.44.58 2.027.977.586.397 1.051.846 1.396 1.348.343.5.517.997.517 1.49 0 .438-.083.842-.248 1.212-.166.371-.391.69-.672.958a2.976 2.976 0 0 1-.983.616 3.171 3.171 0 0 1-1.16.217c-.648 0-1.14-.154-1.478-.463-.338-.308-.506-.66-.506-1.06 0-.205.02-.383.062-.535.04-.15.06-.3.06-.451a.461.461 0 0 0-.205-.381 1.69 1.69 0 0 0-.486-.247 2.697 2.697 0 0 0-.58-.123c-.199-.021-.355-.03-.465-.03a7.986 7.986 0 0 0-2.886.513 9.211 9.211 0 0 0-2.45 1.408 10.514 10.514 0 0 0-1.986 2.118c-.58.817-1.07 1.697-1.468 2.643-.4.946-.703 1.937-.912 2.972a16.019 16.019 0 0 0-.308 3.136c0 1.987.248 3.74.743 5.254.497 1.514 1.173 2.786 2.028 3.814.855 1.03 1.86 1.803 3.02 2.324 1.158.522 2.399.781 3.724.781 1.31 0 2.622-.225 3.94-.678a14.207 14.207 0 0 0 3.773-1.996c1.2-.877 2.308-1.966 3.322-3.268.989-1.272 1.83-2.74 2.524-4.403l.02-.821c.061-2.659.11-4.887.143-6.683.034-1.796.065-3.221.093-4.277.028-1.056.045-1.875.053-2.458.006-.583.013-.986.02-1.212.006-.227.01-.402.01-.526 0-.41.108-.777.32-1.099.215-.323.487-.6.818-.833a4.867 4.867 0 0 1 1.096-.575c.4-.151.793-.272 1.18-.36.386-.09.748-.155 1.085-.196.338-.042.603-.062.797-.062.303 0 .558.123.765.37.207.248.373.71.496 1.389.125.678.214 1.62.27 2.827.054 1.207.082 2.763.082 4.668 0 1.467-.014 3.17-.041 5.11-.027 1.94-.07 4.157-.124 6.651.317-1 .7-1.97 1.147-2.908.45-.94 1.008-1.773 1.676-2.5a7.548 7.548 0 0 1 2.44-1.747c.96-.438 2.1-.658 3.425-.658 1.157 0 2.106.278 2.843.834.738.554 1.32 1.366 1.748 2.435.427 1.07.72 2.375.88 3.917.158 1.544.237 3.301.237 5.276 0 .397.007.77.021 1.12.013.35.062.655.144.915.083.261.211.467.383.617.172.151.418.227.734.227.359 0 .756-.175 1.19-.524.435-.35.872-.806 1.314-1.369.44-.56.882-1.196 1.323-1.901.442-.707.856-1.413 1.241-2.119a36.08 36.08 0 0 0 1.034-2.025c.304-.643.546-1.192.725-1.645.002-.252.005-.523.01-.812a15.233 15.233 0 0 1 .248-2.51c.074-.403.186-.76.331-1.069.144-.308.327-.558.548-.75.22-.191.489-.287.807-.287.192 0 .459.02.796.06.338.042.7.111 1.086.207a8.73 8.73 0 0 1 1.18.39c.398.165.761.363 1.085.596.323.233.59.507.797.823.207.316.31.678.31 1.09 0 .385-.004.936-.012 1.654-.005.721-.016 1.509-.03 2.366a311.568 311.568 0 0 0-.042 4.946c0 .397.007.77.021 1.12a3.5 3.5 0 0 0 .145.915c.083.261.21.467.383.617.173.151.416.227.734.227.358 0 .756-.175 1.19-.524.433-.35.871-.806 1.313-1.369.44-.56.883-1.196 1.324-1.901.441-.707.855-1.413 1.24-2.119a36.08 36.08 0 0 0 1.76-3.67l.002-.009a67.32 67.32 0 0 1 .059-2.09c.042-.959.117-1.959.227-3 .111-1.042.263-2.106.455-3.188.193-1.083.446-2.132.755-3.147.31-1.013.686-1.964 1.128-2.848.44-.884.962-1.659 1.562-2.323.6-.666 1.29-1.19 2.068-1.574.78-.384 1.659-.576 2.637-.576.882 0 1.61.22 2.182.659.572.44 1.021 1.022 1.345 1.747.325.728.549 1.564.673 2.51.123.945.186 1.925.186 2.94 0 .617-.073 1.295-.217 2.036-.146.74-.348 1.508-.61 2.303-.262.795-.58 1.594-.952 2.395a24.075 24.075 0 0 1-1.23 2.314c-.449.74-.938 1.426-1.469 2.056a10.926 10.926 0 0 1-1.645 1.605c0 .384.007.843.02 1.377.014.535.05 1.09.103 1.667.056.574.146 1.144.27 1.705.124.562.292 1.07.507 1.522.213.452.483.816.806 1.09.325.274.72.412 1.19.412.359 0 .755-.175 1.19-.524.433-.35.87-.806 1.313-1.369a21.8 21.8 0 0 0 1.324-1.901c.44-.707.854-1.413 1.24-2.119.387-.704.731-1.38 1.035-2.025.303-.644.545-1.193.723-1.646l.001-.002c.002-.252.005-.522.011-.81a15.053 15.053 0 0 1 .246-2.508c.076-.404.188-.761.332-1.07.145-.308.326-.558.548-.75a1.19 1.19 0 0 1 .807-.287c.193 0 .458.02.797.06.337.042.699.111 1.086.207.386.096.777.226 1.178.39a5.31 5.31 0 0 1 1.087.596c.323.233.589.507.795.823.206.316.311.678.311 1.09a356.838 356.838 0 0 1-.042 4.02 273.778 273.778 0 0 0-.04 4.946c0 .397.006.77.019 1.12.014.35.063.655.145.915.084.261.21.467.384.617.172.151.416.227.734.227.358 0 .754-.175 1.188-.524.435-.35.873-.806 1.314-1.369.441-.56.882-1.196 1.323-1.901a43.85 43.85 0 0 0 1.243-2.119 38.6 38.6 0 0 0 1.034-2.025c.303-.644.544-1.193.723-1.646.083-.232.228-.413.434-.544.208-.131.477-.196.808-.196.206 0 .382.06.526.176.146.116.218.29.218.524v.143a.514.514 0 0 1-.041.185c-.276.81-.622 1.743-1.034 2.797a42.383 42.383 0 0 1-1.449 3.26 39.402 39.402 0 0 1-1.83 3.3 18.799 18.799 0 0 1-2.183 2.9c-.786.85-1.623 1.534-2.513 2.056-.889.52-1.817.781-2.782.781-1.158 0-2.089-.192-2.792-.575-.703-.384-1.249-.987-1.634-1.81-.387-.822-.641-1.882-.766-3.177-.123-1.278-.184-2.811-.186-4.601a39.702 39.702 0 0 1-2.368 4.425 18.787 18.787 0 0 1-2.182 2.901c-.786.85-1.623 1.534-2.513 2.056-.89.52-1.818.781-2.781.781-2.332 0-4.087-.928-5.265-2.787-1.084-1.706-1.67-4.174-1.757-7.403-.175.38-.359.765-.55 1.153a39.943 39.943 0 0 1-1.83 3.3 18.718 18.718 0 0 1-2.183 2.9c-.786.85-1.624 1.534-2.513 2.056-.888.52-1.817.781-2.782.781-1.157 0-2.09-.192-2.792-.575-.704-.384-1.248-.987-1.635-1.81-.386-.822-.64-1.882-.764-3.177-.123-1.278-.185-2.811-.187-4.6-.171.371-.35.746-.538 1.125a39.653 39.653 0 0 1-1.83 3.3 18.788 18.788 0 0 1-2.182 2.9c-.787.85-1.624 1.534-2.513 2.056-.89.52-1.817.781-2.782.781-1.16 0-2.09-.192-2.792-.575-.704-.384-1.249-.987-1.634-1.81-.387-.822-.642-1.882-.765-3.177-.125-1.296-.188-2.855-.188-4.677v-1.605c0-.397-.024-.813-.072-1.245a5.24 5.24 0 0 0-.258-1.171 2.536 2.536 0 0 0-.496-.865 1.026 1.026 0 0 0-.786-.339c-.36 0-.707.154-1.045.464-.338.308-.665.719-.983 1.234-.318.514-.627 1.11-.93 1.788-.305.679-.59 1.392-.858 2.138-.27.748-.528 1.502-.777 2.263a227.701 227.701 0 0 0-1.272 4.02 15.462 15.462 0 0 1-.465 1.337l-.083.144c-.152.33-.344.634-.579.914a3.04 3.04 0 0 1-.9.72 5.183 5.183 0 0 1-1.292.473c-.496.117-1.076.175-1.739.175-.303 0-.589-.032-.857-.092a2.18 2.18 0 0 1-.715-.299 1.467 1.467 0 0 1-.486-.524 1.584 1.584 0 0 1-.175-.772c0-.177.01-.461.03-.853.019-.325.035-.68.052-1.061v-.001l.011-.233.062-1.45c.02-.493.039-.938.052-1.336l.078-3.523Zm54.582-11.356c-.256.913-.587 1.78-.993 2.603-.407.821-.893 1.5-1.46 2.036 0-.646.03-1.4.083-2.263.056-.864.128-1.757.218-2.683.091-.926.2-1.837.331-2.735.132-.899.275-1.7.434-2.408.159-.705.324-1.277.497-1.716.172-.438.355-.658.548-.658.262 0 .468.102.62.308.153.207.26.452.32.74.063.289.1.585.115.885.013.302.02.549.02.74 0 .714-.058 1.523-.175 2.426a19.323 19.323 0 0 1-.558 2.725Z" class="fillable" clip-rule="evenodd"/><path d="M76.812 18.255a4.273 4.273 0 0 0 1.385-.987c.4-.425.717-.93.951-1.512a5.094 5.094 0 0 0 .352-1.922c0-.536-.083-1.009-.249-1.42a3.284 3.284 0 0 0-.66-1.048 2.681 2.681 0 0 0-.963-.648 3.118 3.118 0 0 0-1.147-.214c-.676 0-1.283.114-1.821.348a4.067 4.067 0 0 0-1.365.947c-.373.397-.66.863-.86 1.397-.199.535-.3 1.104-.3 1.707 0 .453.053.901.157 1.347.103.445.27.843.506 1.193.235.349.544.631.931.843.386.212.862.319 1.427.319.579 0 1.13-.116 1.656-.35ZM108.912 18.255a4.259 4.259 0 0 0 1.387-.987c.4-.425.718-.93.951-1.512a5.092 5.092 0 0 0 .353-1.922c0-.536-.085-1.009-.25-1.42a3.24 3.24 0 0 0-.661-1.048 2.672 2.672 0 0 0-.962-.648 3.118 3.118 0 0 0-1.149-.214c-.675 0-1.28.114-1.819.348a4.08 4.08 0 0 0-1.366.947 4.147 4.147 0 0 0-.857 1.397 4.812 4.812 0 0 0-.301 1.707c0 .453.053.901.155 1.347.104.445.272.843.508 1.193.233.349.544.631.93.843.387.212.862.319 1.428.319a4 4 0 0 0 1.653-.35Z" class="fillable"/></g></svg>